HIERARCHY
ROOT Hips
{
    OFFSET 0.000000 0.000000 0.000000
    CHANNELS 6 Xposition Yposition Zposition Zrotation Xrotation Yrotation
    JOINT Spine
    {
        OFFSET -0.000000 8.505030 0.000000
        CHANNELS 3 Zrotation Xrotation Yrotation
        JOINT Spine1
        {
            OFFSET -0.000000 25.070629 0.000000
            CHANNELS 3 Zrotation Xrotation Yrotation
            JOINT Neck
            {
                OFFSET -0.000000 24.967667 2.269788
                CHANNELS 3 Zrotation Xrotation Yrotation
                JOINT Head
                {
                    OFFSET -0.000000 14.520781 -2.074397
                    CHANNELS 3 Zrotation Xrotation Yrotation
                    End Site
                    {
                        OFFSET -0.000000 25.929966 0.000000
                    }
                }
            }
            JOINT LeftShoulder
            {
                OFFSET 4.117346 22.983784 -0.389865
                CHANNELS 3 Zrotation Xrotation Yrotation
                JOINT LeftArm
                {
                    OFFSET 11.957758 0.000000 0.000000
                    CHANNELS 3 Zrotation Xrotation Yrotation
                    JOINT LeftForeArm
                    {
                        OFFSET 31.907600 0.000000 0.000000
                        CHANNELS 3 Zrotation Xrotation Yrotation
                        JOINT LeftHand
                        {
                            OFFSET 28.601147 0.000000 0.000000
                            CHANNELS 3 Zrotation Xrotation Yrotation
                            End Site
                            {
                                OFFSET 15.557981 0.000000 0.000000
                            }
                        }
                    }
                }
            }
            JOINT RightShoulder
            {
                OFFSET -4.061940 22.983784 -0.389865
                CHANNELS 3 Zrotation Xrotation Yrotation
                JOINT RightArm
                {
                    OFFSET -11.957758 0.000000 0.000000
                    CHANNELS 3 Zrotation Xrotation Yrotation
                    JOINT RightForeArm
                    {
                        OFFSET -31.907600 0.000000 0.000000
                        CHANNELS 3 Zrotation Xrotation Yrotation
                        JOINT RightHand
                        {
                            OFFSET -28.601147 0.000000 0.000000
                            CHANNELS 3 Zrotation Xrotation Yrotation
                            End Site
                            {
                                OFFSET -15.557981 0.000000 0.000000
                            }
                        }
                    }
                }
            }
        }
    }
    JOINT LeftUpLeg
    {
        OFFSET 10.371986 0.000000 0.000000
        CHANNELS 3 Zrotation Xrotation Yrotation
        JOINT LeftLeg
        {
            OFFSET -0.000000 -42.486427 0.000000
            CHANNELS 3 Zrotation Xrotation Yrotation
            JOINT LeftFoot
            {
                OFFSET -0.000000 -48.322342 0.000000
                CHANNELS 3 Zrotation Xrotation Yrotation
                JOINT LeftToeBase
                {
                    OFFSET -0.000000 -6.741791 15.557981
                    CHANNELS 3 Zrotation Xrotation Yrotation
                    End Site
                    {
                        OFFSET -0.000000 0.000000 4.148795
                    }
                }
            }
        }
    }
    JOINT RightUpLeg
    {
        OFFSET -10.371986 0.000000 0.000000
        CHANNELS 3 Zrotation Xrotation Yrotation
        JOINT RightLeg
        {
            OFFSET -0.000000 -42.486427 0.000000
            CHANNELS 3 Zrotation Xrotation Yrotation
            JOINT RightFoot
            {
                OFFSET -0.000000 -48.322342 0.000000
                CHANNELS 3 Zrotation Xrotation Yrotation
                JOINT RightToeBase
                {
                    OFFSET -0.000000 -6.741791 15.557981
                    CHANNELS 3 Zrotation Xrotation Yrotation
                    End Site
                    {
                        OFFSET -0.000000 0.000000 4.148795
                    }
                }
            }
        }
    }
}
MOTION
Frames:    6
Frame Time:    0.008333
-40.338242    97.393890    48.476921    -7.833264    -10.550131    111.408951    9.762440    -2.034844    -4.138177    -2.847067    0.067051    -4.310348    3.479028    38.916161    -15.987669    13.271746    16.733107    -15.972239    15.926548    -5.382731    -25.348940    -2.563788    -7.158133    -36.931782    11.269174    -20.785427    13.931601    -11.681692    -19.966196    -21.776066    -9.711669    -2.128845    -2.016420    15.028492    5.808151    44.352871    -10.500031    -24.042833    -0.024023    -5.243369    -24.663725    14.753154    6.963557    -7.202297    8.247746    2.122826    16.529493    -11.621839    -0.339296    -18.283829    3.094873    0.000000    0.000000    0.000000    -9.436778    -62.487312    -0.592430    38.503773    54.330681    -42.143711    3.828528    -15.363027    -17.265713    0.000000    0.000000    0.000000    
-39.838272    97.256660    48.302254    -8.035041    -10.614544    111.510254    9.828457    -2.120629    -4.213867    -2.574275    0.389075    -4.387499    3.101456    38.686607    -15.946134    13.618634    16.792078    -16.035257    15.989432    -5.345028    -25.190870    -2.278013    -7.409889    -37.337231    11.248956    -20.019640    13.765550    -12.295826    -19.029902    -22.112860    -9.883737    -2.104499    -1.922212    14.835851    5.287676    44.488739    -10.527404    -23.988148    -0.119306    -4.823627    -24.583191    15.148522    6.897498    -7.289708    8.154244    2.239100    16.866407    -11.632910    -0.124213    -18.641100    3.191568    0.000000    0.000000    0.000000    -9.419116    -62.665298    -0.595122    37.585205    53.692204    -41.373569    4.314562    -15.025220    -17.109676    0.000000    0.000000    0.000000    
-39.342442    97.118004    48.113598    -8.305316    -10.616265    111.548523    10.015779    -2.024582    -4.218292    -2.738129    0.186739    -4.391286    3.631516    39.130932    -16.189983    13.416584    16.173233    -16.072609    16.126818    -5.115734    -25.510269    -1.947863    -7.640272    -37.485207    11.074389    -19.481785    13.534830    -11.834605    -18.551657    -21.935186    -9.622966    -1.990766    -1.772590    14.580925    4.852895    44.438129    -10.378145    -23.966240    -0.051696    -4.457960    -24.517746    15.325663    6.724623    -7.362154    8.006312    2.333536    17.107632    -11.416088    -0.146942    -18.901403    3.157809    0.000000    0.000000    0.000000    -9.589948    -62.864677    -0.471010    37.079731    52.924995    -40.597675    4.768042    -14.624536    -17.300671    0.000000    0.000000    0.000000    
-38.824760    96.967178    47.919777    -8.570087    -10.630966    111.623039    10.010869    -2.041768    -4.213803    -2.455017    0.341868    -4.385362    3.722174    39.146912    -16.341076    13.461632    15.827569    -16.166719    16.133312    -5.009315    -25.760357    -1.530353    -7.655654    -37.634022    10.990346    -18.992979    13.127170    -11.578510    -18.153008    -21.008575    -9.672081    -1.875009    -1.861294    14.538013    3.997889    44.617489    -10.054703    -23.609423    -0.100573    -3.844251    -24.105925    15.810764    6.508919    -7.537385    8.038953    2.623667    17.537743    -11.541581    -0.193544    -19.232334    3.224020    0.000000    0.000000    0.000000    -9.551709    -63.002422    -0.447725    36.167187    52.339638    -39.872589    5.285697    -14.185290    -17.175945    0.000000    0.000000    0.000000    
-38.331024    96.804985    47.738205    -8.857130    -10.690890    111.708038    9.961031    -2.181614    -4.162634    -2.079880    0.710936    -4.339894    3.822373    38.796303    -16.622681    13.580478    15.822760    -16.453352    16.292112    -5.146912    -26.051491    -1.541540    -7.975537    -37.843773    10.820550    -18.318569    12.827399    -11.442766    -17.534630    -20.185448    -9.836932    -2.004910    -2.030231    14.159423    4.203815    44.608707    -10.227285    -23.918835    -0.048471    -3.232261    -24.337624    16.003254    6.430574    -7.637590    7.749067    2.592408    17.791267    -11.368135    0.032352    -19.583008    3.404251    0.000000    0.000000    0.000000    -9.556295    -63.115284    -0.529351    35.395695    51.762306    -39.126945    5.860442    -13.728371    -17.153522    0.000000    0.000000    0.000000    
-37.806900    96.643112    47.548874    -9.168777    -10.670592    111.755814    9.911985    -2.242792    -4.138353    -1.799751    0.929732    -4.318307    4.205288    38.655724    -16.806051    13.287026    15.543530    -16.529242    16.313278    -5.127160    -26.231537    -1.261481    -7.937798    -38.073101    10.740259    -17.670946    12.526534    -11.748154    -16.833664    -19.809595    -9.908170    -2.108242    -2.188637    14.068419    3.870538    44.751392    -10.083690    -23.711882    0.017396    -2.433850    -24.022942    15.977769    6.248787    -7.796307    7.897361    2.768362    18.172478    -11.573997    0.023290    -19.899483    3.468746    0.000000    0.000000    0.000000    -9.339351    -63.216507    -0.541127    34.191147    51.387321    -38.319347    6.829307    -13.062979    -16.733637    0.000000    0.000000    0.000000    
